<?xml version="1.0" encoding="utf-8"?>
<!-- Generator: Adobe Illustrator 19.1.0, SVG Export Plug-In . SVG Version: 6.00 Build 0)  -->
<svg version="1.1" id="backpack" xmlns="http://www.w3.org/2000/svg" xmlns:xlink="http://www.w3.org/1999/xlink" x="0px" y="0px"
	 width="500px" height="500px" viewBox="235 -235 500 500" enable-background="new 235 -235 500 500" xml:space="preserve">
<g id="background" display="none">
	<rect x="235" y="-235" display="inline" fill="#E6E6E6" width="500" height="500"/>
</g>
<g id="handle">
	<path fill="#272C40" stroke="#000000" stroke-width="2" stroke-miterlimit="10" d="M503.8-89.3H498v-22.2c0-4.2-3.4-7.6-7.6-7.6
		h-11.3c-4.2,0-7.6,3.4-7.6,7.6v22.2h-5.7v-22.2c0-7.3,6-13.3,13.3-13.3h11.3c7.3,0,13.3,6,13.3,13.3L503.8-89.3L503.8-89.3
		L503.8-89.3z"/>
</g>
<g id="base">
	<path fill="#272C40" stroke="#000000" stroke-width="3" stroke-miterlimit="10" d="M546.3,151.4H423.6c-8.3,0-15-6.8-15-15V-92.8
		c0-8.3,6.8-15,15-15h122.7c8.3,0,15,6.8,15,15v229.2C561.3,144.6,554.6,151.4,546.3,151.4z"/>
</g>
<g id="cover-shadow">
	<path opacity="0.125" enable-background="new    " d="M515.3,13.8c-30.2,0-30.5,0-60.7,0c-32.4,0-50-29.8-50-39.1s3-62.1,3-62.1
		c0-8.3,6.8-15,15-15h124.7c8.3,0,14.6,6.8,15,15c0.5,9.3,3,52.8,3,62.1S547.3,13.8,515.3,13.8z"/>
</g>
<g id="cover">
	<path fill="#272C40" stroke="#000000" stroke-width="3" stroke-miterlimit="10" d="M515.3,8.5c-30.2,0-30.5,0-60.7,0
		c-32.4,0-50-29.8-50-39.1s3-62.1,3-62.1c0-8.3,6.8-15,15-15h124.7c8.3,0,14.6,6.8,15,15c0.5,9.3,3,52.8,3,62.1S547.3,8.5,515.3,8.5
		z"/>
</g>
<g id="pocket-base">
	<path fill="#394054" stroke="#000000" stroke-width="2" stroke-miterlimit="10" d="M547.3,41.2h-125v80.3c0,8.8,7.5,15.9,16.2,15.9
		h93c8.8,0,15.8-7.1,15.8-15.9V57.1C547.3,48.4,547.3,49.9,547.3,41.2L547.3,41.2z"/>
</g>
<g id="zipper">
	<path fill="#FFFFFF" stroke="#000000" stroke-miterlimit="10" d="M435.9,70.3c-2.8,0.4-3.7,11.3-3.6,13.4c0,2,1.6,3.7,3.6,3.8
		c2-0.1,3.6-1.8,3.6-3.8C439.6,81.6,438.6,70.7,435.9,70.3z M435.9,85.2c-1.1,0-2-0.9-1.9-2c0-1.1,0.9-2,2-1.9c1.1,0,2,0.9,1.9,2
		C437.9,84.4,437,85.3,435.9,85.2z"/>
</g>
<g id="pocket-top-shadow" opacity="0.1">
	<path d="M547.5,66.1c0,9-7.1,16.7-16.1,16.7h-92.3c-9,0-16.6-7.6-16.6-16.7V46.2h124.9L547.5,66.1L547.5,66.1L547.5,66.1z"/>
</g>
<g id="pocket-top">
	<path id="pocket" fill="#4D556B" stroke="#000000" stroke-width="2" stroke-miterlimit="10" d="M547.5,61.1c0,9-7.1,16.7-16.1,16.7
		h-92.3c-9,0-16.6-7.6-16.6-16.7V41.2h124.9L547.5,61.1L547.5,61.1L547.5,61.1z"/>
</g>
<g id="logo">
	<path fill="#FFFFFF" stroke="#000000" stroke-miterlimit="10" d="M473.3,97h23.2v17.2h-23.2V97z"/>
	<path fill="#FFFFFF" stroke="#000000" stroke-miterlimit="10" d="M475.9,99.5h18v12.3h-18V99.5z"/>
</g>
<g>
	<defs>
		<rect id="SVGID_1_" x="235" y="-106.3" width="500" height="309"/>
	</defs>
	<clipPath id="SVGID_2_">
		<use xlink:href="#SVGID_1_"  overflow="visible"/>
	</clipPath>
	<g id="strap-right" clip-path="url(#SVGID_2_)">
		<path fill="#93481F" stroke="#000000" stroke-width="1.5" stroke-miterlimit="10" d="M519.7-109.3h-7.5c-1.7,0-3,1.3-3,3v1.7v4.8
			v1v2.2v220.9v5.7v7c0,1.7,1.3,3,3,3h7.5c1.7,0,3-1.3,3-3v-7v-5.7V-96.6v-2.2v-1v-4.8v-1.7C522.7-107.9,521.3-109.3,519.7-109.3z"
			/>
		<ellipse fill="#93481F" stroke="#000000" stroke-miterlimit="10" cx="515.8" cy="88.8" rx="1.5" ry="1.5"/>
		<ellipse fill="#93481F" stroke="#000000" stroke-miterlimit="10" cx="515.8" cy="98.5" rx="1.5" ry="1.5"/>
		<ellipse fill="#93481F" stroke="#000000" stroke-miterlimit="10" cx="515.8" cy="79.1" rx="1.5" ry="1.5"/>
		<ellipse fill="#93481F" stroke="#000000" stroke-miterlimit="10" cx="515.8" cy="108.3" rx="1.5" ry="1.5"/>
		<ellipse fill="#93481F" stroke="#000000" stroke-miterlimit="10" cx="515.8" cy="17.6" rx="1.5" ry="1.5"/>
		<ellipse fill="#93481F" stroke="#000000" stroke-miterlimit="10" cx="515.8" cy="27.4" rx="1.5" ry="1.5"/>
		<ellipse fill="#93481F" stroke="#000000" stroke-miterlimit="10" cx="515.8" cy="7.8" rx="1.5" ry="1.5"/>
		<ellipse fill="#93481F" stroke="#000000" stroke-miterlimit="10" cx="515.8" cy="37.2" rx="1.5" ry="1.5"/>
		<ellipse fill="#93481F" stroke="#000000" stroke-miterlimit="10" cx="515.8" cy="7.8" rx="1.5" ry="1.5"/>
	</g>
</g>
<g>
	<defs>
		<rect id="SVGID_3_" x="235" y="-106.3" width="500" height="309"/>
	</defs>
	<clipPath id="SVGID_4_">
		<use xlink:href="#SVGID_3_"  overflow="visible"/>
	</clipPath>
	<g id="strap-left" clip-path="url(#SVGID_4_)">
		<path fill="#93481F" stroke="#000000" stroke-width="1.5" stroke-miterlimit="10" d="M457.7-109.3h-7.5c-1.7,0-3,1.3-3,3v1.7v4.8
			v1v2.2v220.9v5.7v7c0,1.7,1.3,3,3,3h7.5c1.7,0,3-1.3,3-3v-7v-5.7V-96.6v-2.2v-1v-4.8v-1.7C460.7-107.9,459.3-109.3,457.7-109.3z"
			/>
		<ellipse fill="#93481F" stroke="#000000" stroke-miterlimit="10" cx="453.8" cy="88.8" rx="1.5" ry="1.5"/>
		<ellipse fill="#93481F" stroke="#000000" stroke-miterlimit="10" cx="453.8" cy="98.5" rx="1.5" ry="1.5"/>
		<ellipse fill="#93481F" stroke="#000000" stroke-miterlimit="10" cx="453.8" cy="79.1" rx="1.5" ry="1.5"/>
		<ellipse fill="#93481F" stroke="#000000" stroke-miterlimit="10" cx="453.8" cy="108.3" rx="1.5" ry="1.5"/>
		<ellipse fill="#93481F" stroke="#000000" stroke-miterlimit="10" cx="453.8" cy="17.6" rx="1.5" ry="1.5"/>
		<ellipse fill="#93481F" stroke="#000000" stroke-miterlimit="10" cx="453.8" cy="27.4" rx="1.5" ry="1.5"/>
		<ellipse fill="#93481F" stroke="#000000" stroke-miterlimit="10" cx="453.8" cy="7.8" rx="1.5" ry="1.5"/>
		<ellipse fill="#93481F" stroke="#000000" stroke-miterlimit="10" cx="453.8" cy="37.2" rx="1.5" ry="1.5"/>
		<ellipse fill="#93481F" stroke="#000000" stroke-miterlimit="10" cx="453.8" cy="7.8" rx="1.5" ry="1.5"/>
	</g>
</g>
<g id="strap-holder-right">
	<path fill="#B5683C" stroke="#000000" stroke-miterlimit="10" d="M528.2-25.9c0,0.9-0.7,1.6-1.6,1.6h-21.4c-0.9,0-1.6-0.7-1.6-1.6
		v-1.8c0-0.9,0.7-1.6,1.6-1.6h21.4c0.9,0,1.6,0.7,1.6,1.6V-25.9L528.2-25.9z M528.2,57.3c0,0.9-0.7,1.6-1.6,1.6h-21.4
		c-0.9,0-1.6-0.7-1.6-1.6v-1.8c0-0.9,0.7-1.6,1.6-1.6h21.4c0.9,0,1.6,0.7,1.6,1.6V57.3L528.2,57.3z M528.2-84c0,0.9-0.7,1.6-1.6,1.6
		h-21.4c-0.9,0-1.6-0.7-1.6-1.6v-1.8c0-0.9,0.7-1.6,1.6-1.6h21.4c0.9,0,1.6,0.7,1.6,1.6V-84L528.2-84z"/>
</g>
<g id="strap-buckle-right">
	<path fill="#FFFFFF" stroke="#000000" stroke-miterlimit="10" d="M515.8,0.9c-7,0-8.1,1.7-8.1,2.7v12.3c0,1,1,2,2,2h12.7
		c1,0,1.5-1,1.5-2V3.6C524.1,2.6,522.8,0.9,515.8,0.9L515.8,0.9L515.8,0.9z M522.3,14.2c0,0.8-0.6,1.4-1.4,1.4h-9.8
		c-0.8,0-1.4-0.6-1.4-1.4V6.3c0-0.8,0.6-1.4,1.4-1.4h9.8c0.8,0,1.4,0.6,1.4,1.4V14.2L522.3,14.2z"/>
	<path fill="#FFFFFF" stroke="#000000" stroke-miterlimit="10" d="M515.8,72.9c-7,0-8.1,1.7-8.1,2.7v12.3c0,1,1,2,2,2h12.7
		c1,0,1.5-1,1.5-2V75.6C524.1,74.6,522.8,72.9,515.8,72.9L515.8,72.9L515.8,72.9z M522.3,86.2c0,0.8-0.6,1.4-1.4,1.4h-9.8
		c-0.8,0-1.4-0.6-1.4-1.4v-7.9c0-0.8,0.6-1.4,1.4-1.4h9.8c0.8,0,1.4,0.6,1.4,1.4V86.2L522.3,86.2z"/>
</g>
<g id="strap-prong-right-btm">
	<path fill="#FFFFFF" stroke="#000000" stroke-miterlimit="10" d="M515.8,74.9c-0.8,0-1.5,0.7-1.5,1.5v1.9c0,0.8,0.7,1.5,1.5,1.5
		s1.5-0.7,1.5-1.5v-1.9C517.3,75.6,516.7,74.9,515.8,74.9z"/>
</g>
<g id="strap-prong-right-top">
	<path fill="#FFFFFF" stroke="#000000" stroke-miterlimit="10" d="M515.8,2.9c-0.8,0-1.5,0.7-1.5,1.5v1.9c0,0.8,0.7,1.5,1.5,1.5
		s1.5-0.7,1.5-1.5V4.4C517.3,3.6,516.7,2.9,515.8,2.9z"/>
</g>
<g id="strap-holder-left">
	<path fill="#B5683C" stroke="#000000" stroke-miterlimit="10" d="M466.1-25.9c0,0.9-0.7,1.6-1.6,1.6h-21.4c-0.9,0-1.6-0.7-1.6-1.6
		v-1.8c0-0.9,0.7-1.6,1.6-1.6h21.4c0.9,0,1.6,0.7,1.6,1.6V-25.9L466.1-25.9z M466.1,57.3c0,0.9-0.7,1.6-1.6,1.6h-21.4
		c-0.9,0-1.6-0.7-1.6-1.6v-1.8c0-0.9,0.7-1.6,1.6-1.6h21.4c0.9,0,1.6,0.7,1.6,1.6V57.3L466.1,57.3z M466.1-84c0,0.9-0.7,1.6-1.6,1.6
		h-21.4c-0.9,0-1.6-0.7-1.6-1.6v-1.8c0-0.9,0.7-1.6,1.6-1.6h21.4c0.9,0,1.6,0.7,1.6,1.6V-84L466.1-84z"/>
</g>
<g id="strap-buckle-left">
	<path fill="#FFFFFF" stroke="#000000" stroke-miterlimit="10" d="M453.9,71.9c-7,0-8.1,1.7-8.1,2.7v12.3c0,1,1,2,2,2h12.7
		c1,0,1.5-1,1.5-2V74.6C462.1,73.6,460.9,71.9,453.9,71.9L453.9,71.9L453.9,71.9z M460.3,85.2c0,0.8-0.6,1.4-1.4,1.4h-9.8
		c-0.8,0-1.4-0.6-1.4-1.4v-7.9c0-0.8,0.6-1.4,1.4-1.4h9.8c0.8,0,1.4,0.6,1.4,1.4V85.2L460.3,85.2z"/>
	<path fill="#FFFFFF" stroke="#000000" stroke-miterlimit="10" d="M453.9,0.9c-7,0-8.1,1.7-8.1,2.7v12.3c0,1,1,2,2,2h12.7
		c1,0,1.5-1,1.5-2V3.6C462.1,2.6,460.9,0.9,453.9,0.9L453.9,0.9L453.9,0.9z M460.3,14.2c0,0.8-0.6,1.4-1.4,1.4h-9.8
		c-0.8,0-1.4-0.6-1.4-1.4V6.3c0-0.8,0.6-1.4,1.4-1.4h9.8c0.8,0,1.4,0.6,1.4,1.4V14.2L460.3,14.2z"/>
</g>
<g id="strap-prong-left-btm">
	<path fill="#FFFFFF" stroke="#000000" stroke-miterlimit="10" d="M453.9,74.9c-0.8,0-1.5,0.7-1.5,1.5v1.9c0,0.8,0.7,1.5,1.5,1.5
		s1.5-0.7,1.5-1.5v-1.9C455.4,75.6,454.6,74.9,453.9,74.9z"/>
</g>
<g id="strap-prong-left-top">
	<path fill="#FFFFFF" stroke="#000000" stroke-miterlimit="10" d="M453.9,2.9c-0.8,0-1.5,0.7-1.5,1.5v1.9c0,0.8,0.7,1.5,1.5,1.5
		s1.5-0.7,1.5-1.5V4.4C455.4,3.6,454.6,2.9,453.9,2.9z"/>
</g>
</svg>
